<svg xmlns="http://www.w3.org/2000/svg" width="275" height="700" viewBox="0 0 275 700">
  <defs>
    <style>
      .cls-1 {
        fill: #003826;
      }

      .cls-1, .cls-2 {
        fill-rule: evenodd;
      }

      .cls-2 {
        fill: #b1b1b1;
        mix-blend-mode: overlay;
      }
    </style>
  </defs>
  <path id="Rectangle_575_copy_6" data-name="Rectangle 575 copy 6" class="cls-1" d="M-0.5-.406H276V700.041H-0.5V-0.406Z"/>
  <path id="Shape_529_copia" data-name="Shape 529 copia" class="cls-2" d="M80.258,687.35l-7.325,12.687H71.615l7.325-12.687-79.452-137.6v-2.281l80.6,139.593Zm21.616,2.412-5.933,10.275H94.623l5.933-10.275L-0.511,514.731v-2.28l102.22,177.026Zm-96.5,10.275-5.888-10.2v-2.281l7.205,12.478H5.377Zm31.652-17.511L26.917,700.037H25.6l-26.111-45.22v-2.281L26.258,698.9l9.453-16.371L-0.511,619.8v-2.281l37.375,64.726Zm20.581,4.2-7.685,13.309H48.608l8.718-15.1L-0.511,584.775v-2.282l58.953,102.1C58.693,684.851,58.63,684.962,57.61,686.728Zm548.55,3.112-38.438-66.569-9.453,16.371,34.873,60.395h-1.317L557.61,640.783l-9.452,16.369,24.763,42.885H571.6l-24.1-41.744-9.452,16.371,14.65,25.373h-1.316l-13.993-24.232-9.452,16.369,4.54,7.863h-1.318l-3.881-6.722-3.882,6.722h-1.317l4.705-8.148h0l50.391-87.27-9.452-16.371L503.173,700.037h-1.317l65.207-112.928-9.453-16.37-74.659,129.3h-1.317L556.952,569.6l-9.452-16.37L462.729,700.037h-1.318l85.43-147.949-9.453-16.371-94.882,164.32h-1.317L536.73,534.576l-9.453-16.371L426.824,692.173h0l-4.541,7.863h-1.318l4.54-7.863-49.9-86.413-0.551-.955-0.108-.185L302.824,479.708h0L274.5,430.651l-9.453,16.373,37.779,65.427,102.22,177.026,0.165,0.285-5.933,10.275h-1.318l5.933-10.275L302.824,514.731l-38.438-66.567-9.452,16.369,47.89,82.939h0l80.6,139.593,0.165,0.285-7.326,12.687H374.95l7.326-12.687-79.452-137.6-48.549-84.079-9.452,16.37,58,100.449,58.954,102.1c0.25,0.262.187,0.373-.833,2.139l-7.685,13.309h-1.317l8.718-15.1L302.824,584.775h0l-58.66-101.59-9.453,16.37,68.113,117.961h0L340.2,682.241l0.164,0.285-10.112,17.511h-1.316l-26.112-45.22h0L274.5,605.76l-9.453,16.371,37.779,65.427h0l7.206,12.478h-1.318l-5.888-10.2h0l-38.438-66.569-9.453,16.371,34.874,60.395H288.49l-34.215-59.254-9.452,16.369,24.762,42.885h-1.317l-24.1-41.744-9.453,16.371,14.652,25.373h-1.318l-13.992-24.232L224.6,692.174l4.54,7.863h-1.317l-3.881-6.722-3.882,6.722h-1.317l4.705-8.148h0l50.391-87.27-9.453-16.371L199.838,700.037H198.52l65.208-112.928-9.453-16.37-74.66,129.3H178.3L253.617,569.6l-9.453-16.37-84.77,146.809h-1.318l85.43-147.949-9.453-16.371-94.882,164.32h-1.318l95.541-165.461-9.452-16.371L123.488,692.173h0l-4.54,7.863h-1.318l4.54-7.863-49.9-86.413-0.552-.955-0.107-.185L-0.511,479.708v-2.28l26.769,46.36,9.452-16.37-36.222-62.73v-2.282l37.374,64.726,0.165,0.286-10.111,17.51,10.845,18.783,19.564-33.882L-0.511,409.665v-2.281l58.99,102.16,0.165,0.285L38.421,544.851l10.845,18.783,29.675-51.393-79.452-137.6v-2.283l80.6,139.594,0.165,0.285L49.925,564.774,60.77,583.556l39.786-68.9L5.377,349.82l-5.888-10.2v-2.282L6.694,349.82h0l95.014,164.548,0.165,0.285L61.429,584.7,72.274,603.48l47.752-82.7,2.145-3.714L103.39,484.54,71.78,429.8l-0.165-.284h0L25.6,349.82h0L-0.511,304.6v-2.281l26.769,46.36,9.453-16.37-36.222-62.73V267.3l37.375,64.726,0.165,0.286L26.917,349.82,37.762,368.6,48.607,349.82h0l8.718-15.1L-0.511,234.558v-2.283l58.953,102.1c0.251,0.261.188,0.371-.832,2.138L49.925,349.82h0l-11.5,19.922,10.845,18.782,22.349-38.7,7.325-12.687-79.452-137.6v-2.282l80.6,139.593,0.165,0.285L72.933,349.82h0L49.925,389.665,60.77,408.448,94.623,349.82h0l5.933-10.274L-0.511,164.514v-2.281l102.22,177.028,0.165,0.285L95.941,349.82h0L61.429,409.589l10.845,18.782,45.357-78.551,4.54-7.862-49.9-86.414-0.552-.955-0.107-.185L-0.511,129.492V127.21l26.769,46.36,9.452-16.37L-0.511,94.471V92.189l37.374,64.727,0.165,0.284L26.917,174.711l10.845,18.783,19.564-33.881L-0.511,59.448V57.167l58.99,102.16,0.165,0.286L38.421,194.634l10.845,18.783,29.675-51.392L-0.511,24.427V22.146l80.6,139.594,0.165,0.285L49.925,214.557,60.77,233.34l39.786-68.9L5.377-.4H6.695L101.709,164.15l0.165,0.287L61.429,234.48l10.845,18.783,47.752-82.7,2.145-3.716L103.39,134.323,71.78,79.58l-0.165-.285h0L25.6-.4h1.317L37.762,18.384c1.531-2.652,6.352-11,10.845-18.781h1.317l-11.5,19.923L49.266,38.307,71.615-.4h1.317L49.925,39.448,60.77,58.231,94.623-.4h1.318L61.429,59.371,72.274,78.153,117.631-.4h1.318L72.933,79.294l27.661,47.9,22.236,38.509,10.845-18.783L93.4,77.167l-0.165-.285L137.853-.4h1.318L94.548,76.881l39.786,68.9L145.179,127,115.011,74.755l-0.165-.285L158.076-.4h1.317L116.163,74.47l29.675,51.392,10.845-18.783-9.947-17.225c-10.187-17.643-10.187-17.643-10.187-17.8V71.9L178.3-.4h1.317L137.778,72.058c1.732,3,16.642,28.822,19.564,33.88l10.845-18.781-10.112-17.51L198.52-.4h1.318L159.393,69.647l9.453,16.369L218.743-.4h1.317L123.488,166.848h0L85.1,233.334,72.933,254.4,88.114,280.7l34.716,60.12,10.845-18.78L93.4,252.276l-0.165-.285L233.394,9.252,227.823-.4h1.317l45.851,79.405h0l27.832,48.2h0l26.769,46.36,9.453-16.37L302.824,94.471h0L248.045-.4h1.318l53.461,92.586h0L340.2,156.916l0.165,0.284-10.112,17.511L341.1,193.494l19.564-33.881L302.824,59.448v0L268.268-.4h1.317l33.239,57.565h0l58.99,102.16,0.165,0.286-20.223,35.021L352.6,213.417l29.675-51.392-79.452-137.6h0L288.49-.4h1.317l13.017,22.543,80.6,139.594,0.165,0.285L353.26,214.557l10.845,18.783,39.786-68.9L308.712-.4h1.318L405.044,164.15l0.165,0.287L364.764,234.48l10.845,18.783,47.753-82.7,2.145-3.716-18.782-32.525L375.116,79.58l-0.166-.285h0L328.936-.4h1.316L341.1,18.384c1.531-2.652,6.353-11,10.845-18.781h1.318l-11.5,19.923L352.6,38.307,374.95-.4h1.318L353.26,39.448l10.845,18.783L397.958-.4h1.318L364.764,59.371l10.845,18.782L420.966-.4h1.318L376.268,79.294l27.661,47.9,22.236,38.509,10.846-18.783L396.73,77.167l-0.165-.285L441.189-.4h1.317L397.883,76.881l39.786,68.9L448.514,127,418.345,74.755l-0.164-.285L461.411-.4h1.318L419.5,74.47l29.674,51.392,10.845-18.783-9.946-17.225c-10.187-17.643-10.187-17.643-10.187-17.8V71.9L481.633-.4h1.318L441.113,72.058c1.732,3,16.642,28.822,19.564,33.88l10.845-18.781L461.41,69.647,501.856-.4h1.317L462.728,69.647l9.452,16.369L522.078-.4H523.4L426.824,166.848h0l-38.392,66.486L376.268,254.4,391.45,280.7l34.715,60.12,10.845-18.78-40.28-69.76-0.165-.285L536.73,9.252,531.158-.4h1.318l45.851,79.405h0l27.833,48.2v2.281L577.833,80.434,568.38,96.806l37.78,65.427v2.281L567.722,97.947l-9.452,16.37,47.89,82.938v2.282l-48.55-84.08-9.452,16.369,58,100.449v2.282L547.5,132.966l-9.452,16.372L606.16,267.3v2.282l-68.772-119.1-9.452,16.37,50.391,87.27-0.494.285h0l0.494-.285,27.833,48.2V304.6l-28.327-49.057-9.453,16.369,37.78,65.427v2.282l-38.438-66.568-9.453,16.371,34.873,60.395h0l13.017,22.542v2.282L591.825,349.82h0L557.61,290.566l-9.452,16.37,24.763,42.884,33.239,57.564v2.281L571.6,349.82l-24.1-41.743-9.452,16.369L552.7,349.82l53.463,92.586v2.281L551.381,349.82l-13.993-24.233-9.452,16.371,4.54,7.862,45.851,79.406h0l27.833,48.2v2.282l-28.327-49.057-9.453,16.373,37.78,65.427v2.28l-38.438-66.567-9.452,16.369,47.89,82.939v2.281l-48.55-84.079-9.452,16.37,58,100.449v2.281L547.5,483.184l-9.452,16.37L606.16,617.515V619.8L537.388,500.7l-9.452,16.369,50.391,87.27-0.494.285h0l0.494-.285,27.833,48.2v2.282L577.833,605.76l-9.453,16.371,37.78,65.427v2.282ZM375.609,603.48l47.753-82.7,2.145-3.714L406.725,484.54,375.116,429.8l-0.166-.284h0L328.936,349.82h0L302.824,304.6h0L274.5,255.544l-9.453,16.369,37.779,65.427h0l7.206,12.479h0l95.014,164.548,0.165,0.285L364.764,584.7ZM158.075,419.863L198.52,349.82l65.208-112.928-9.453-16.371-74.66,129.3-41.837,72.455,19.564,33.881,10.845-18.782Zm10.771,16.37,49.9-86.413,4.705-8.148h0L273.839,254.4l-9.453-16.37L199.838,349.82h0l-40.445,70.043Zm-22.11,3.838c-10.187-17.643-10.187-17.643-10.187-17.8v-0.153l41.749-72.3h0l75.319-130.439-9.453-16.37L159.394,349.82h0l-43.23,74.867,29.675,51.392L156.683,457.3Zm-31.725-15.1-0.165-.285,43.23-74.867,85.43-147.949L234.053,185.5,139.171,349.82h0L94.548,427.1,134.334,496l10.845-18.782Zm159.98-170.854-0.493.285h0l0.494-.285,27.832,48.2h0l26.769,46.36,9.454-16.37-36.223-62.73h0l-68.771-119.1-9.453,16.37Zm27.833,13.18h0L340.2,332.023l0.164,0.286L330.252,349.82,341.1,368.6c1.531-2.651,6.353-11,10.845-18.782h0c4.082-7.071,7.894-13.672,8.718-15.1L302.824,234.558h0l-58.66-101.591-9.453,16.372Zm0-35.023,58.954,102.1c0.25,0.261.187,0.371-.833,2.138L353.26,349.82h0l-11.5,19.922L352.6,388.524l22.349-38.7,7.326-12.687-79.452-137.6-48.549-84.08-9.452,16.369Zm0-35.02h0l80.6,139.593,0.165,0.285-7.326,12.687h0L353.26,389.665l10.845,18.783,33.853-58.628h0l5.933-10.274L302.824,164.514,264.386,97.947l-9.452,16.37Zm61.281,386.3,39.786-68.9L308.712,349.82l-5.888-10.2h0l-38.438-66.568-9.453,16.371,34.874,60.395h0l13.017,22.542,80.6,139.594,0.165,0.285L353.26,564.774Zm-11.5-19.922,29.675-51.393-79.452-137.6h0L288.49,349.82h0l-34.215-59.254-9.452,16.37,24.762,42.884,33.239,57.564h0l58.99,102.16,0.165,0.285-20.223,35.022Zm-11.5-19.923,19.564-33.882L302.824,409.665h0L268.268,349.82l-24.1-41.743-9.453,16.369,14.652,25.374,53.461,92.586h0L340.2,507.132l0.165,0.286-10.112,17.51ZM274.991,429.226h0l27.832,48.2v0l26.769,46.36,9.453-16.37-36.222-62.73h0L248.045,349.82l-13.992-24.233L224.6,341.958l4.54,7.862Zm0,175.109-0.493.285h0l0.494-.285,27.832,48.2h0L329.593,698.9l9.454-16.371L302.824,619.8h0L234.053,500.7,224.6,517.065ZM223.447,516.78l0.5,0.286h0l-0.494-.286,50.391-87.268-9.453-16.371L159.393,594.972l9.453,16.37Zm-55.26,95.7-10.112-17.51L263.728,412l-9.453-16.371-116.5,201.754,19.564,33.882Zm-11.5,19.924-20.058-34.737-0.164-.285,117.156-202.9-9.453-16.369-128,221.676,29.675,51.391Zm-11.5,19.922-30.167-52.247-0.165-.285,128.66-222.817-9.453-16.371L94.548,602.208l39.786,68.9ZM85.1,583.551l-12.165,21.07,15.181,26.292,34.716,60.12,10.845-18.781L93.4,602.493l-0.165-.285,140.164-242.74-5.571-9.648-3.881-6.723-3.882,6.723L123.488,517.065h0Zm38.39-241.593h0l-4.54,7.862L72.933,429.512l27.661,47.9,22.236,38.508,10.845-18.781L93.4,427.384,93.23,427.1l44.623-77.279h0l95.541-165.461-9.452-16.37ZM234.053,10.391L94.548,251.991l39.786,68.9,10.844-18.782-30.167-52.248-0.165-.285L243.506,26.762ZM244.164,27.9l-128,221.676,29.675,51.392,10.845-18.783-20.058-34.736-0.164-.284,117.156-202.9Zm10.111,17.51-116.5,201.755,19.564,33.879,10.845-18.781-10.112-17.512L263.728,61.783Zm10.111,17.511L159.393,244.754l9.453,16.371,54.6-94.561,0.5,0.284h0l-0.494-.284,50.391-87.27Zm111.223,192.62-0.551-.955-0.108-.185L302.824,129.492h0L274.5,80.434l-9.453,16.372,37.779,65.427,102.22,177.028,0.165,0.285-5.933,10.274h0l-34.512,59.769,10.845,18.782,45.357-78.551,4.54-7.862ZM537.388,10.391l-139.505,241.6,39.786,68.9,10.845-18.782-30.169-52.248-0.164-.285L546.841,26.762ZM547.5,27.9l-128,221.676,29.674,51.392,10.845-18.783-20.057-34.736-0.165-.284,117.156-202.9Zm10.111,17.51-116.5,201.755,19.564,33.879,10.845-18.781L461.41,244.754,567.063,61.783Zm19.564,33.881-9.452-16.371L462.728,244.754l9.452,16.371,54.6-94.561,0.5,0.284h0l-0.5-.284Zm-49.9,88.695L426.824,341.958h0l-4.541,7.862-46.016,79.692,27.661,47.9,22.236,38.508,10.846-18.781L396.73,427.384l-0.165-.285,44.624-77.279h0L536.73,184.359ZM537.388,185.5L442.506,349.82h0L397.883,427.1,437.669,496l10.845-18.782-30.169-52.248-0.164-.285,43.23-74.867,85.43-147.949ZM547.5,203.011L462.729,349.82h0L419.5,424.687l29.674,51.392L460.018,457.3l-9.946-17.226c-10.187-17.643-10.187-17.643-10.187-17.8v-0.153l41.748-72.3h0l75.318-130.439Zm10.11,17.51-74.659,129.3-41.838,72.455,19.564,33.881,10.845-18.782L461.41,419.863l40.446-70.043,65.207-112.928ZM577.174,254.4l-9.452-16.37L503.173,349.82h0l-40.445,70.043,9.452,16.37,49.9-86.413,4.705-8.148h0ZM531.158,349.82l-3.881-6.723L523.4,349.82,426.824,517.065h0l-38.392,66.485-12.165,21.07,15.182,26.292,34.715,60.12,10.845-18.781-40.28-69.759-0.165-.285L536.73,359.468Zm6.23,10.788-139.505,241.6,39.786,68.9,10.845-18.783-30.169-52.247-0.164-.285,128.66-222.817ZM547.5,378.12L419.5,599.8l29.674,51.391,10.845-18.781-20.057-34.737-0.165-.285,117.156-202.9Zm10.111,17.51-116.5,201.754,19.564,33.882,10.845-18.784-10.112-17.51L567.063,412Zm19.564,33.882-9.452-16.371L462.728,594.972l9.452,16.37,54.6-94.562,0.5,0.286h0l-0.5-.286ZM593.143-.4L606.16,22.146v2.281L591.825-.4h1.318ZM552.7-.4L606.16,92.189v2.282L551.381-.4H552.7Zm20.224,0L606.16,57.168V59.45L571.6-.4h1.318ZM1293.6,687.35l-7.33,12.687h-1.31l7.32-12.687-79.45-137.6v-2.281l80.61,139.593Zm21.62,2.412-5.94,10.275h-1.32l5.94-10.275L1212.83,514.731v-2.28l102.22,177.026Zm-96.5,10.275-5.89-10.2v-2.281l7.21,12.478h-1.32Zm31.65-17.511-10.11,17.511h-1.32l-26.11-45.22v-2.281L1239.6,698.9l9.45-16.371-36.22-62.73v-2.281l37.38,64.726Zm20.58,4.2-7.68,13.309h-1.32c4.08-7.07,7.89-13.671,8.72-15.1l-57.84-100.164v-2.282l58.95,102.1C1272.03,684.851,1271.97,684.962,1270.95,686.728Zm548.55,3.112-38.44-66.569-9.45,16.371,34.87,60.395h-1.31l-34.22-59.254-9.45,16.369,24.76,42.885h-1.32l-24.1-41.744-9.45,16.371,14.65,25.373h-1.32l-13.99-24.232-9.45,16.369,4.54,7.863h-1.32l-3.88-6.722-3.88,6.722h-1.32l4.7-8.148h0l50.4-87.27-9.46-16.371-64.55,111.788h-1.31l65.2-112.928-9.45-16.37-74.66,129.3h-1.31L1770.29,569.6l-9.45-16.37-84.77,146.809h-1.32l85.43-147.949-9.45-16.371-94.88,164.32h-1.32l95.54-165.461-9.45-16.371L1640.17,692.173h0l-4.54,7.863h-1.32l4.54-7.863-49.9-86.413-0.55-.955-0.11-.185-72.12-124.913h0l-28.33-49.057-9.45,16.373,37.78,65.427,102.22,177.026,0.16,0.285-5.93,10.275h-1.32l5.93-10.275L1516.17,514.731l-38.44-66.567-9.45,16.369,47.89,82.939h0l80.6,139.593,0.17,0.285-7.33,12.687h-1.32l7.33-12.687-79.45-137.6-48.55-84.079-9.46,16.37,58.01,100.449,58.95,102.1c0.25,0.262.19,0.373-.83,2.139l-7.69,13.309h-1.32c4.09-7.07,7.9-13.671,8.72-15.1l-57.83-100.164h0l-58.66-101.59-9.46,16.37,68.12,117.961h0l37.37,64.726,0.17,0.285-10.12,17.511h-1.31l-26.11-45.22h0l-28.33-49.058-9.45,16.371,37.78,65.427h0l7.2,12.478h-1.32l-5.88-10.2h0l-38.44-66.569-9.46,16.371,34.88,60.395h-1.32l-34.21-59.254-9.46,16.369,24.77,42.885h-1.32l-24.1-41.744-9.46,16.371,14.65,25.373h-1.31l-14-24.232-9.45,16.369,4.54,7.863h-1.32l-3.88-6.722-3.88,6.722h-1.32l4.71-8.148h0l50.39-87.27-9.45-16.371-64.55,111.788h-1.32l65.21-112.928-9.45-16.37-74.66,129.3h-1.32L1466.96,569.6l-9.45-16.37-84.77,146.809h-1.32l85.43-147.949-9.46-16.371-94.88,164.32h-1.31l95.54-165.461-9.46-16.371L1336.83,692.173h0l-4.54,7.863h-1.32l4.54-7.863-49.89-86.413-0.56-.955-0.1-.185-72.13-124.913v-2.28l26.77,46.36,9.45-16.37-36.22-62.73v-2.282l37.37,64.726,0.17,0.286-10.11,17.51,10.84,18.783,19.57-33.882-57.84-100.164v-2.281l58.99,102.16,0.17,0.285-20.23,35.022,10.85,18.783,29.67-51.393-79.45-137.6v-2.283l80.61,139.594,0.16,0.285-30.33,52.533,10.84,18.782,39.79-68.9L1218.72,349.82l-5.89-10.2v-2.282l7.21,12.479h0l95.01,164.548,0.17,0.285L1274.77,584.7l10.85,18.783,47.75-82.7,2.14-3.714-18.78-32.526L1285.12,429.8l-0.16-.284h0l-46.02-79.691h0l-26.11-45.22v-2.281l26.77,46.36,9.45-16.37-36.22-62.73V267.3l37.38,64.726,0.16,0.286-10.11,17.511L1251.1,368.6c1.53-2.651,6.36-11,10.85-18.782h0c4.08-7.071,7.89-13.672,8.72-15.1l-57.84-100.163v-2.283l58.95,102.1c0.25,0.261.19,0.371-.83,2.138l-7.68,13.309h0l-11.51,19.922,10.85,18.782,22.35-38.7,7.32-12.687-79.45-137.6v-2.282l80.61,139.593,0.16,0.285-7.33,12.687h0l-23,39.845,10.84,18.783,33.85-58.628h0l5.94-10.274L1212.83,164.514v-2.281l102.22,177.028,0.17,0.285-5.94,10.274h0l-34.51,59.769,10.85,18.782,45.35-78.551,4.54-7.862-49.89-86.414-0.56-.955-0.1-.185-72.13-124.912V127.21l26.77,46.36,9.45-16.37-36.22-62.729V92.189l37.37,64.727,0.17,0.284-10.11,17.511,10.84,18.783,19.57-33.881L1212.83,59.448V57.167l58.99,102.16,0.17,0.286-20.23,35.021,10.85,18.783,29.67-51.392-79.45-137.6V22.146l80.61,139.594,0.16,0.285-30.33,52.532,10.84,18.783,39.79-68.9L1218.72-.4h1.32l95.01,164.547,0.17,0.287-40.45,70.043,10.85,18.783,47.75-82.7,2.14-3.716-18.78-32.525L1285.12,79.58l-0.16-.285h0L1238.94-.4h1.32l10.84,18.781c1.53-2.652,6.36-11,10.85-18.781h1.32l-11.51,19.923,10.85,18.781L1284.96-.4h1.31l-23,39.845,10.84,18.783L1307.96-.4h1.32l-34.51,59.768,10.85,18.782L1330.97-.4h1.32l-46.02,79.691,27.67,47.9,22.23,38.509,10.85-18.783-40.28-69.758-0.17-.285L1351.19-.4h1.32l-44.62,77.278,39.79,68.9L1358.52,127l-30.17-52.247-0.16-.285L1371.42-.4h1.32L1329.51,74.47l29.67,51.392,10.84-18.783-9.94-17.225c-10.19-17.643-10.19-17.643-10.19-17.8V71.9L1391.64-.4h1.32l-41.84,72.455c1.73,3,16.64,28.822,19.56,33.88l10.85-18.781-10.11-17.51L1411.86-.4h1.32l-40.45,70.044,9.46,16.369L1432.08-.4h1.32l-96.57,167.245h0l-38.39,66.486-12.17,21.07,15.19,26.292,34.71,60.12,10.85-18.78-40.28-69.76-0.17-.285L1446.74,9.252,1441.16-.4h1.32l45.85,79.405h0l27.84,48.2h0l26.77,46.36,9.45-16.37-36.22-62.729h0L1461.39-.4h1.31l53.47,92.586h0l37.37,64.727,0.17,0.284-10.12,17.511,10.85,18.783L1574,159.613,1516.17,59.448v0L1481.61-.4h1.32l33.24,57.565h0l58.99,102.16,0.16,0.286-20.22,35.021,10.84,18.783,29.68-51.392-79.45-137.6h0L1501.83-.4h1.32l13.02,22.543,80.6,139.594,0.17,0.285-30.34,52.532,10.85,18.783,39.78-68.9L1522.05-.4h1.32l95.02,164.547,0.16,0.287-40.44,70.043,10.84,18.783,47.75-82.7,2.15-3.716-18.78-32.525L1588.46,79.58l-0.17-.285h0L1542.28-.4h1.31l10.85,18.781c1.53-2.652,6.35-11,10.84-18.781h1.32l-11.5,19.923,10.84,18.781L1588.29-.4h1.32L1566.6,39.448l10.85,18.783L1611.3-.4h1.32l-34.51,59.768,10.84,18.782L1634.31-.4h1.32l-46.02,79.691,27.66,47.9,22.24,38.509,10.84-18.783-40.28-69.758-0.16-.285L1654.53-.4h1.32l-44.63,77.278,39.79,68.9L1661.86,127l-30.17-52.247-0.17-.285L1674.75-.4h1.32L1632.84,74.47l29.68,51.392,10.84-18.783-9.95-17.225c-10.18-17.643-10.18-17.643-10.18-17.8V71.9L1694.97-.4h1.32l-41.83,72.455c1.73,3,16.64,28.822,19.56,33.88l10.84-18.781-10.11-17.51L1715.2-.4h1.31l-40.44,70.044,9.45,16.369L1735.42-.4h1.32l-96.57,167.245h0l-38.39,66.486-12.17,21.07,15.18,26.292,34.72,60.12,10.84-18.78-40.28-69.76-0.16-.285L1750.07,9.252,1744.5-.4h1.32l45.85,79.405h0l27.83,48.2v2.281l-28.33-49.057-9.45,16.372,37.78,65.427v2.281l-38.44-66.567-9.45,16.37,47.89,82.938v2.282l-48.55-84.08-9.45,16.369,58,100.449v2.282l-58.66-101.591-9.45,16.372L1819.5,267.3v2.282l-68.77-119.1-9.45,16.37,50.39,87.27-0.5.285h0l0.5-.285,27.83,48.2V304.6l-28.33-49.057-9.45,16.369,37.78,65.427v2.282l-38.44-66.568-9.45,16.371,34.87,60.395h0l13.02,22.542v2.282l-14.33-24.824h0l-34.22-59.254-9.45,16.37,24.76,42.884,33.24,57.564v2.281l-34.56-59.845-24.1-41.743-9.45,16.369,14.65,25.374,53.46,92.586v2.281l-54.78-94.867-13.99-24.233-9.45,16.371,4.54,7.862,45.85,79.406h0l27.83,48.2v2.282l-28.33-49.057-9.45,16.373,37.78,65.427v2.28l-38.44-66.567-9.45,16.369,47.89,82.939v2.281l-48.55-84.079-9.45,16.37,58,100.449v2.281l-58.66-101.59-9.45,16.37,68.11,117.961V619.8l-68.77-119.1-9.45,16.369,50.39,87.27-0.5.285h0l0.5-.285,27.83,48.2v2.282l-28.33-49.058-9.45,16.371,37.78,65.427v2.282Zm-230.55-86.36,47.75-82.7,2.15-3.714-18.78-32.526L1588.46,429.8l-0.17-.284h0l-46.01-79.691h0l-26.11-45.22h0l-28.33-49.057-9.45,16.369,37.78,65.427h0l7.2,12.479h0l95.02,164.548,0.16,0.285L1578.11,584.7ZM1371.42,419.863l40.44-70.043,65.21-112.928-9.45-16.371-74.66,129.3-41.84,72.455c1.73,3,16.64,28.821,19.56,33.881l10.85-18.782Zm10.77,16.37,49.89-86.413,4.71-8.148h0l50.39-87.269-9.45-16.37L1413.18,349.82h0l-40.45,70.043Zm-22.11,3.838c-10.19-17.643-10.19-17.643-10.19-17.8v-0.153l41.75-72.3h0l75.32-130.439-9.45-16.37L1372.74,349.82h0l-43.23,74.867,29.67,51.392,10.84-18.782Zm-31.73-15.1-0.16-.285,43.23-74.867,85.43-147.949-9.46-16.371-94.88,164.32h0L1307.89,427.1l39.79,68.9,10.84-18.782Zm159.98-170.854-0.49.285h0l0.49-.285,27.84,48.2h0l26.77,46.36,9.45-16.37-36.22-62.73h0l-68.78-119.1-9.45,16.37Zm27.84,13.18h0l37.37,64.726,0.17,0.286-10.12,17.511,10.85,18.782c1.53-2.651,6.35-11,10.84-18.782h0c4.09-7.071,7.9-13.672,8.72-15.1l-57.83-100.163h0l-58.66-101.591-9.46,16.372Zm0-35.023,58.95,102.1c0.25,0.261.19,0.371-.83,2.138l-7.69,13.309h0l-11.5,19.922,10.84,18.782,22.35-38.7,7.33-12.687-79.45-137.6-48.55-84.08-9.46,16.369Zm0-35.02h0l80.6,139.593,0.17,0.285-7.33,12.687h0l-23.01,39.845,10.85,18.783,33.85-58.628h0l5.93-10.274L1516.17,164.514l-38.44-66.567-9.45,16.37Zm61.28,386.3,39.78-68.9L1522.05,349.82l-5.88-10.2h0l-38.44-66.568-9.46,16.371,34.88,60.395h0l13.02,22.542,80.6,139.594,0.17,0.285-30.34,52.533Zm-11.51-19.922,29.68-51.393-79.45-137.6h0l-14.34-24.824h0l-34.21-59.254-9.46,16.37,24.77,42.884,33.24,57.564h0l58.99,102.16,0.16,0.285-20.22,35.022Zm-11.5-19.923L1574,509.829l-57.83-100.164h0l-34.56-59.845-24.1-41.743-9.46,16.369,14.65,25.374,53.47,92.586h0l37.37,64.726,0.17,0.286-10.12,17.51Zm-66.11-114.485h0l27.84,48.2v0l26.77,46.36,9.45-16.37-36.22-62.73h0l-54.78-94.867-14-24.233-9.45,16.371,4.54,7.862Zm0,175.109-0.49.285h0l0.49-.285,27.84,48.2h0l26.77,46.361,9.45-16.371-36.22-62.73h0l-68.78-119.1-9.45,16.369Zm-51.54-87.555,0.49,0.286h0l-0.49-.286,50.39-87.268-9.45-16.371-105,181.831,9.46,16.37Zm-55.26,95.7-10.11-17.51L1477.07,412l-9.45-16.371-116.5,201.754,19.56,33.882Zm-11.51,19.924-20.05-34.737-0.17-.285,117.16-202.9-9.45-16.369-128,221.676,29.67,51.391Zm-11.5,19.922-30.17-52.247-0.16-.285,128.66-222.817-9.46-16.371-139.5,241.6,39.79,68.9Zm-60.08-68.777-12.17,21.07,15.19,26.292,34.71,60.12,10.85-18.781-40.28-69.759-0.17-.285,140.17-242.74-5.58-9.648-3.88-6.723-3.88,6.723-96.57,167.245h0Zm38.39-241.593h0l-4.54,7.862-46.02,79.692,27.67,47.9,22.23,38.508,10.85-18.781-40.28-69.759-0.17-.285,44.62-77.279h0.01l95.54-165.461-9.46-16.37ZM1447.39,10.391l-139.5,241.6,39.79,68.9,10.84-18.782-30.17-52.248-0.16-.285L1456.85,26.762ZM1457.51,27.9l-128,221.676,29.67,51.392,10.84-18.783-20.05-34.736-0.17-.284,117.16-202.9Zm10.11,17.51-116.5,201.755,19.56,33.879,10.85-18.781-10.11-17.512L1477.07,61.783Zm10.11,17.511-105,181.83,9.46,16.371,54.6-94.561,0.49,0.284h0l-0.49-.284,50.39-87.27Zm111.22,192.62-0.55-.955-0.11-.185-72.12-124.912h0l-28.33-49.057-9.45,16.372,37.78,65.427,102.22,177.028,0.16,0.285-5.93,10.274h0l-34.51,59.769,10.84,18.782,45.36-78.551,4.54-7.862ZM1750.73,10.391l-139.51,241.6,39.79,68.9,10.85-18.782-30.17-52.248-0.17-.285L1760.18,26.762ZM1760.84,27.9l-128,221.676,29.67,51.392,10.85-18.783-20.06-34.736-0.16-.284,117.15-202.9Zm10.11,17.51L1654.46,247.168l19.56,33.879,10.84-18.781-10.11-17.512L1780.4,61.783Zm19.57,33.881-9.46-16.371-104.99,181.83,9.45,16.371,54.6-94.561,0.5,0.284h0l-0.5-.284Zm-49.9,88.695L1640.17,341.958h0l-4.54,7.862-46.02,79.692,27.66,47.9,22.24,38.508,10.84-18.781-40.28-69.759-0.16-.285,44.62-77.279h0l95.54-165.461Zm10.11,17.511-94.88,164.32h0L1611.22,427.1l39.79,68.9,10.85-18.782-30.17-52.248-0.17-.285,43.23-74.867,85.43-147.949Zm10.11,17.511L1676.07,349.82h0l-43.23,74.867,29.68,51.392,10.84-18.782-9.95-17.226c-10.18-17.643-10.18-17.643-10.18-17.8v-0.153l41.74-72.3h0.01l75.31-130.439Zm10.11,17.51-74.66,129.3-41.83,72.455c1.73,3,16.64,28.821,19.56,33.881l10.84-18.782-10.11-17.511,40.45-70.043,65.2-112.928Zm19.57,33.882-9.46-16.37L1716.51,349.82h0l-40.44,70.043,9.45,16.37,49.9-86.413,4.7-8.148h0ZM1744.5,349.82l-3.88-6.723-3.88,6.723-96.57,167.245h0l-38.39,66.485-12.17,21.07,15.18,26.292,34.72,60.12,10.84-18.781-40.28-69.759-0.16-.285,140.16-242.74Zm6.23,10.788-139.51,241.6,39.79,68.9,10.85-18.783-30.17-52.247-0.17-.285,128.66-222.817Zm10.11,17.512-128,221.676,29.67,51.391,10.85-18.781-20.06-34.737-0.16-.285,117.15-202.9Zm10.11,17.51L1654.46,597.384l19.56,33.882,10.84-18.784-10.11-17.51L1780.4,412Zm19.57,33.882-9.46-16.371L1676.07,594.972l9.45,16.37,54.6-94.562,0.5,0.286h0l-0.5-.286ZM1806.48-.4l13.02,22.543v2.281L1805.17-.4h1.31Zm-40.44,0,53.46,92.586v2.282L1764.72-.4h1.32Zm20.22,0,33.24,57.565V59.45L1784.94-.4h1.32ZM686.929,687.35L679.6,700.037h-1.318l7.326-12.687-79.452-137.6v-2.281l80.6,139.593Zm21.615,2.412-5.932,10.275h-1.318l5.933-10.275L606.16,514.731v-2.28L708.38,689.477Zm-96.5,10.275-5.888-10.2v-2.281l7.205,12.478h-1.317ZM643.7,682.526l-10.111,17.511h-1.317l-26.111-45.22v-2.281L632.929,698.9l9.453-16.371L606.16,619.8v-2.281l37.375,64.726Zm20.582,4.2L656.6,700.037h-1.317l8.717-15.1L606.16,584.775v-2.282l58.952,102.1C665.364,684.851,665.3,684.962,664.281,686.728Zm548.549,3.112-38.44-66.569-9.45,16.371,34.87,60.395h-1.31l-34.22-59.254-9.45,16.369,24.76,42.885h-1.32l-24.1-41.744-9.45,16.371,14.65,25.373h-1.32l-13.99-24.232-9.45,16.369,4.54,7.863h-1.32l-3.88-6.722-3.88,6.722h-1.32l4.7-8.148h0l50.4-87.27-9.46-16.371-64.55,111.788h-1.31l65.2-112.928-9.45-16.37-74.66,129.3h-1.32L1163.62,569.6l-9.45-16.37L1069.4,700.037h-1.32l85.43-147.949-9.45-16.371-94.88,164.32h-1.32l95.54-165.461-9.45-16.371L1033.49,692.173h0.01l-4.55,7.863h-1.31l4.54-7.863-49.9-86.413-0.551-.955-0.108-.185L909.5,479.708h0l-28.326-49.057-9.453,16.373L909.5,512.451,1011.72,689.477l0.16,0.285-5.93,10.275h-1.32l5.93-10.275L909.5,514.731l-38.438-66.567-9.452,16.369,47.89,82.939h0L990.1,687.065l0.165,0.285-7.326,12.687h-1.318l7.326-12.687L909.5,549.753l-48.549-84.079-9.452,16.37,58,100.449,58.953,102.1c0.251,0.262.187,0.373-.832,2.139l-7.685,13.309h-1.317l8.718-15.1L909.5,584.775h0l-58.66-101.59-9.453,16.37L909.5,617.515h0l37.376,64.726,0.164,0.285-10.112,17.511h-1.316L909.5,654.817h0L881.169,605.76l-9.453,16.371L909.5,687.558h0l7.206,12.478h-1.318l-5.888-10.2h0l-38.438-66.569L861.6,639.642l34.874,60.395h-1.317l-34.215-59.254-9.452,16.369,24.762,42.885h-1.317l-24.1-41.744-9.453,16.371,14.651,25.373h-1.317l-13.992-24.232-9.453,16.369,4.54,7.863h-1.317l-3.881-6.722-3.882,6.722h-1.318l4.705-8.148h0l50.391-87.27-9.453-16.371L806.509,700.037h-1.318L870.4,587.109l-9.453-16.37-74.66,129.3h-1.317L860.287,569.6l-9.452-16.37L766.064,700.037h-1.317l85.43-147.949-9.453-16.371-94.882,164.32h-1.318l95.541-165.461-9.452-16.371L730.159,692.173h0l-4.541,7.863H724.3l4.54-7.863-49.9-86.413-0.552-.955-0.107-.185L606.16,479.708v-2.28l26.769,46.36,9.453-16.37-36.222-62.73v-2.282l37.374,64.726,0.165,0.286-10.111,17.51,10.845,18.783L664,509.829,606.16,409.665v-2.281l58.989,102.16,0.165,0.285-20.222,35.022,10.845,18.783,29.675-51.393-79.452-137.6v-2.283l80.6,139.594,0.165,0.285L656.6,564.774l10.845,18.782,39.786-68.9L612.048,349.82l-5.888-10.2v-2.282l7.205,12.479h0L708.38,514.368l0.164,0.285L668.1,584.7l10.845,18.783,47.752-82.7,2.145-3.714L710.061,484.54,678.451,429.8l-0.165-.284h0L632.271,349.82h0L606.16,304.6v-2.281l26.769,46.36,9.453-16.37-36.222-62.73V267.3l37.375,64.726,0.164,0.286L633.588,349.82,644.433,368.6l10.845-18.782h0l8.717-15.1L606.16,234.558v-2.283l58.952,102.1c0.252,0.261.188,0.371-.831,2.138L656.6,349.82h0l-11.5,19.922,10.845,18.782,22.349-38.7,7.326-12.687-79.452-137.6v-2.282l80.6,139.593,0.165,0.285L679.6,349.82h0L656.6,389.665l10.845,18.783,33.852-58.628h0l5.933-10.274L606.16,164.514v-2.281L708.38,339.261l0.164,0.285-5.932,10.274h0L668.1,409.589l10.845,18.782L724.3,349.82l4.54-7.862-49.9-86.414-0.552-.955-0.107-.185L606.16,129.492V127.21l26.769,46.36,9.453-16.37L606.16,94.471V92.189l37.374,64.727L643.7,157.2l-10.111,17.511,10.845,18.783L664,159.613,606.16,59.448V57.167l58.989,102.16,0.165,0.286-20.222,35.021,10.845,18.783,29.675-51.392L606.16,24.427V22.146l80.6,139.594,0.165,0.285L656.6,214.557l10.845,18.783,39.786-68.9L612.048-.4h1.317L708.38,164.15l0.164,0.287L668.1,234.48l10.845,18.783,47.752-82.7,2.145-3.716-18.781-32.525L678.451,79.58l-0.165-.285h0L632.271-.4h1.317l10.845,18.781L655.278-.4H656.6l-11.5,19.923,10.845,18.781L678.286-.4H679.6L656.6,39.448l10.845,18.783L701.293-.4h1.318L668.1,59.371l10.845,18.782L724.3-.4h1.317L679.6,79.294l27.661,47.9L729.5,165.708l10.845-18.783-40.28-69.758-0.165-.285L744.524-.4h1.317L701.219,76.881l39.786,68.9L751.85,127,721.682,74.755l-0.166-.285L764.747-.4h1.317L722.834,74.47l29.675,51.392,10.845-18.783-9.947-17.225c-10.187-17.643-10.187-17.643-10.187-17.8V71.9L784.969-.4h1.317L744.449,72.058c1.732,3,16.642,28.822,19.564,33.88l10.845-18.781-10.112-17.51L805.191-.4h1.318L766.064,69.647l9.452,16.369L825.413-.4h1.318L730.159,166.848h0l-38.391,66.486L679.6,254.4,694.785,280.7l34.716,60.12,10.845-18.78-40.28-69.76-0.165-.285L840.065,9.252,834.494-.4h1.317l45.851,79.405h0l27.832,48.2h0l26.769,46.36,9.453-16.37L909.5,94.471h0L854.716-.4h1.317L909.5,92.189h0l37.375,64.727,0.164,0.284-10.111,17.511,10.845,18.783,19.564-33.881L909.5,59.448v0L874.939-.4h1.317L909.5,57.168h0l58.99,102.16,0.165,0.286-20.223,35.021,10.845,18.783,29.675-51.392L909.5,24.427h0L895.161-.4h1.317L909.5,22.146,990.1,161.74l0.165,0.285-30.334,52.532,10.845,18.783,39.784-68.9L915.383-.4H916.7L1011.72,164.15l0.16,0.287L971.434,234.48l10.846,18.783,47.75-82.7,2.15-3.716-18.78-32.525L981.786,79.58l-0.165-.285h0L935.607-.4h1.316l10.845,18.781L958.613-.4h1.318l-11.5,19.923,10.845,18.781L981.621-.4h1.318L959.931,39.448l10.845,18.783L1004.63-.4h1.32L971.434,59.371,982.28,78.153,1027.64-.4h1.31L982.939,79.294l27.661,47.9,22.24,38.509,10.84-18.783L1003.4,77.167l-0.16-.285L1047.86-.4h1.32l-44.63,77.278,39.79,68.9L1055.19,127l-30.17-52.247-0.17-.285L1068.08-.4h1.32L1026.17,74.47l29.67,51.392,10.85-18.783-9.95-17.225c-10.18-17.643-10.18-17.643-10.18-17.8V71.9L1088.3-.4h1.32l-41.84,72.455c1.74,3,16.65,28.822,19.57,33.88l10.84-18.781-10.11-17.51L1108.53-.4h1.31L1069.4,69.647l9.45,16.369L1128.75-.4h1.32l-96.58,167.245h0.01l-38.4,66.486L982.939,254.4,998.121,280.7l34.719,60.12,10.84-18.78-40.28-69.76-0.16-.285L1143.4,9.252,1137.83-.4h1.32L1185,79.009h0l27.83,48.2v2.281L1184.5,80.434l-9.45,16.372,37.78,65.427v2.281l-38.44-66.567-9.45,16.37,47.89,82.938v2.282l-48.55-84.08-9.45,16.369,58,100.449v2.282l-58.66-101.591-9.45,16.372,68.11,117.96v2.282l-68.77-119.1-9.45,16.37,50.39,87.27-0.5.285h0l0.5-.285,27.83,48.2V304.6l-28.33-49.057-9.45,16.369,37.78,65.427v2.282l-38.44-66.568-9.45,16.371,34.87,60.395h0l13.02,22.542v2.282L1198.5,349.82h0l-34.22-59.254-9.45,16.37,24.76,42.884,33.24,57.564v2.281l-34.56-59.845-24.1-41.743-9.45,16.369,14.65,25.374,53.46,92.586v2.281l-54.78-94.867-13.99-24.233-9.45,16.371,4.54,7.862L1185,429.226h0l27.83,48.2v2.282l-28.33-49.057-9.45,16.373,37.78,65.427v2.28l-38.44-66.567-9.45,16.369,47.89,82.939v2.281l-48.55-84.079-9.45,16.37,58,100.449v2.281l-58.66-101.59-9.45,16.37,68.11,117.961V619.8l-68.77-119.1-9.45,16.369,50.39,87.27-0.5.285h0l0.5-.285,27.83,48.2v2.282L1184.5,605.76l-9.45,16.371,37.78,65.427v2.282ZM982.28,603.48l47.75-82.7,2.15-3.714L1013.4,484.54,981.786,429.8l-0.165-.284h0L935.607,349.82h0L909.5,304.6h0l-28.326-49.057-9.453,16.369L909.5,337.34h0L916.7,349.82h0l95.019,164.548,0.16,0.285L971.434,584.7ZM764.746,419.863l40.445-70.043L870.4,236.892l-9.453-16.371-74.66,129.3-41.837,72.455,19.564,33.881,10.845-18.782Zm10.77,16.37,49.9-86.413,4.705-8.148h0L880.51,254.4l-9.453-16.37L806.509,349.82h0l-40.445,70.043Zm-22.109,3.838c-10.187-17.643-10.187-17.643-10.187-17.8v-0.153l41.749-72.3h0l75.318-130.439-9.452-16.37L766.064,349.82h0l-43.23,74.867,29.675,51.392L763.354,457.3Zm-31.725-15.1-0.166-.285,43.231-74.867,85.43-147.949L840.724,185.5,745.842,349.82h0L701.219,427.1,741.005,496,751.85,477.22Zm159.98-170.854-0.494.285h0l0.494-.285,27.832,48.2h0l26.769,46.36,9.453-16.37L909.5,269.579h0l-68.771-119.1-9.453,16.37ZM909.5,267.3h0l37.376,64.726,0.164,0.286L936.923,349.82,947.768,368.6l10.845-18.782h0c4.082-7.071,7.894-13.672,8.718-15.1L909.5,234.558h0l-58.66-101.591-9.453,16.372Zm0-35.023,58.953,102.1c0.251,0.261.187,0.371-.832,2.138l-7.685,13.309h0l-11.5,19.922,10.845,18.782,22.349-38.7,7.326-12.687L909.5,199.537l-48.549-84.08-9.452,16.369Zm0-35.02h0L990.1,336.848l0.165,0.285-7.326,12.687h0l-23.008,39.845,10.845,18.783,33.854-58.628h0l5.93-10.274L909.5,164.514,871.057,97.947l-9.452,16.37Zm61.281,386.3,39.784-68.9L915.383,349.82l-5.888-10.2h0l-38.438-66.568L861.6,289.425l34.874,60.395h0L909.5,372.362,990.1,511.956l0.165,0.285-30.334,52.533Zm-11.5-19.922,29.675-51.393L909.5,374.645h0L895.161,349.82h0l-34.215-59.254-9.452,16.37,24.762,42.884L909.5,407.384h0l58.99,102.16,0.165,0.285-20.223,35.022Zm-11.5-19.923,19.564-33.882L909.5,409.665h0L874.939,349.82l-24.1-41.743-9.453,16.369,14.651,25.374L909.5,442.406h0l37.375,64.726,0.164,0.286-10.111,17.51ZM881.662,429.226h0l27.832,48.2v0l26.769,46.36,9.453-16.37L909.5,444.688h0L854.716,349.82l-13.992-24.233-9.453,16.371,4.54,7.862Zm0,175.109-0.494.285h0l0.494-.285,27.832,48.2h0L936.264,698.9l9.453-16.371L909.5,619.8h0L840.724,500.7l-9.453,16.369ZM830.118,516.78l0.5,0.286h0l-0.5-.286,50.392-87.268-9.453-16.371L766.064,594.972l9.452,16.37Zm-55.261,95.7-10.111-17.51L870.4,412l-9.453-16.371-116.5,201.754,19.563,33.882Zm-11.5,19.924L743.3,597.669l-0.165-.285,117.156-202.9-9.452-16.369-128,221.676,29.674,51.391Zm-11.5,19.922-30.167-52.247-0.166-.285,128.66-222.817-9.452-16.371-139.5,241.6L741,671.111Zm-60.08-68.777L679.6,604.621l15.181,26.292,34.716,60.12,10.845-18.781-40.28-69.759-0.165-.285,140.164-242.74-5.571-9.648-3.881-6.723-3.882,6.723L730.159,517.065h0Zm38.39-241.593h0l-4.541,7.862L679.6,429.512l27.661,47.9L729.5,515.924l10.845-18.781-40.28-69.759L699.9,427.1l44.623-77.279h0l95.541-165.461-9.452-16.37ZM840.724,10.391l-139.5,241.6L741,320.894l10.845-18.782-30.167-52.248-0.166-.285L850.176,26.762ZM850.835,27.9l-128,221.676,29.674,51.392,10.846-18.783L743.3,247.452l-0.165-.284,117.156-202.9Zm10.111,17.51-116.5,201.755,19.563,33.879,10.845-18.781-10.111-17.512L870.4,61.783Zm10.111,17.511L766.064,244.754l9.452,16.371,54.6-94.561,0.5,0.284h0l-0.5-.284,50.392-87.27ZM982.28,255.544l-0.551-.955-0.108-.185L909.5,129.492h0L881.169,80.434l-9.453,16.372L909.5,162.233,1011.72,339.261l0.16,0.285-5.93,10.274h0l-34.516,59.769,10.846,18.782,45.36-78.551,4.54-7.862ZM1144.06,10.391l-139.51,241.6,39.79,68.9,10.84-18.782-30.16-52.248-0.17-.285L1153.51,26.762ZM1154.17,27.9l-128,221.676,29.67,51.392,10.85-18.783-20.06-34.736-0.16-.284,117.15-202.9Zm10.11,17.51-116.5,201.755,19.57,33.879,10.84-18.781-10.11-17.512L1173.73,61.783Zm19.57,33.881-9.46-16.371L1069.4,244.754l9.45,16.371,54.6-94.561,0.5,0.284h0l-0.5-.284Zm-49.9,88.695L1033.49,341.958h0.01l-4.55,7.862-46.011,79.692,27.661,47.9,22.24,38.508,10.84-18.781-40.28-69.759-0.16-.285,44.62-77.279h0l95.54-165.461Zm10.11,17.511-94.88,164.32h0L1004.55,427.1l39.79,68.9,10.85-18.782-30.17-52.248-0.17-.285,43.23-74.867,85.43-147.949Zm10.11,17.511L1069.4,349.82h0l-43.23,74.867,29.67,51.392,10.85-18.782-9.95-17.226c-10.18-17.643-10.18-17.643-10.18-17.8v-0.153l41.74-72.3h0l75.32-130.439Zm10.11,17.51-74.66,129.3-41.84,72.455c1.74,3,16.65,28.821,19.57,33.881l10.84-18.782-10.11-17.511,40.45-70.043,65.2-112.928Zm19.57,33.882-9.46-16.37L1109.84,349.82h0l-40.44,70.043,9.45,16.37,49.9-86.413,4.7-8.148h0Zm-46.02,95.417-3.88-6.723-3.88,6.723-96.58,167.245h0.01l-38.4,66.485-12.165,21.07,15.182,26.292,34.719,60.12,10.84-18.781-40.28-69.759-0.16-.285,140.16-242.74Zm6.23,10.788-139.51,241.6,39.79,68.9,10.84-18.783-30.16-52.247-0.17-.285,128.66-222.817Zm10.11,17.512-128,221.676,29.67,51.391,10.85-18.781-20.06-34.737-0.16-.285,117.15-202.9Zm10.11,17.51-116.5,201.754,19.57,33.882,10.84-18.784-10.11-17.51L1173.73,412Zm19.57,33.882-9.46-16.371L1069.4,594.972l9.45,16.37,54.6-94.562,0.5,0.286h0l-0.5-.286ZM1199.81-.4l13.02,22.543v2.281L1198.5-.4h1.31Zm-40.44,0,53.46,92.586v2.282L1158.05-.4h1.32Zm20.22,0,33.24,57.565V59.45L1178.27-.4h1.32Z"/>
</svg>
